<?xml version="1.0" encoding="UTF-8"?>
<svg width="125px" height="106px" viewBox="0 0 125 106" version="1.1" xmlns="http://www.w3.org/2000/svg" xmlns:xlink="http://www.w3.org/1999/xlink">
    <title>easyweek_sign_wbg</title>
    <g id="Page-1" stroke="none" stroke-width="1" fill="none" fill-rule="evenodd">
        <g id="01" transform="translate(-639.000000, -432.000000)" fill="#383868">
            <g id="Group" transform="translate(561.000000, 375.000000)">
                <g id="easyweek" transform="translate(78.000000, 57.000000)">
                    <path d="M46.5384615,32.1040724 C46.6628959,32.1040724 46.9117647,32.7262443 47.0361991,33.5972851 C49.677954,34.7250676 52.7002726,34.5178129 55.1633474,33.0399681 C57.6264221,31.5621233 59.2315615,28.9929031 59.479638,26.1312217 L59.479638,25.8823529 L65.2036199,25.8823529 C65.3766511,28.7889375 66.9513771,31.4301495 69.4260646,32.9644557 C71.9007521,34.4987619 74.9667042,34.7347704 77.6470588,33.5972851 L76.4027149,36.0859729 L76.4027149,36.459276 C74.4117647,41.1877828 74.5361991,44.5475113 76.9004525,46.6628959 C80.6334842,50.0226244 88.7217195,48.4049774 90.3393665,41.4366516 C90.8371041,39.5701357 91.0859729,37.5791855 91.2104072,35.4638009 L91.2104072,34.7171946 L91.3348416,33.9705882 L91.7081448,31.4819005 L91.7081448,31.2330317 L91.9570136,30.8597285 L91.9570136,30.2375566 C93.4838882,24.7893118 98.494256,21.0570991 104.151584,21.1538462 C108.88009,21.1538462 111.742081,24.0158371 112.613122,29.9886878 C110.995475,29.4909502 111.368778,27.5 108.88009,26.0067873 C106.0181,24.2647059 102.658371,24.7624434 101.911765,27.6244344 C101.040724,30.4864253 101.662896,33.0995475 101.911765,36.9570136 L101.911765,44.7963801 C105.395928,42.9298643 109.128959,42.3076923 113.11086,42.8054299 C118.959276,43.5520362 124.558824,48.7782805 124.558824,55.7466063 C124.558824,62.5904977 120.576923,67.5678733 114.728507,68.9366516 C111.866516,69.6832579 109.377828,68.9366516 108.257919,67.9411765 C114.106335,66.6968326 117.466063,63.959276 118.337104,59.9773756 C119.830317,53.3823529 114.230769,49.0271493 107.511312,51.5158371 C105.022624,52.3868778 103.156109,53.6312217 100.418552,55.6221719 L99.9208145,55.9954751 L98.3031674,57.239819 L97.1832579,58.1108597 L97.0588235,58.2352941 L96.8099548,58.4841629 L95.0678733,59.7285068 L87.60181,62.9638009 C93.8386841,65.3679429 99.7696848,68.5005137 105.271493,72.2963801 C110.248869,76.1538462 112.488688,83.4954751 110,89.3438914 C107.511312,95.3167421 99.6719457,98.9253394 94.321267,96.0633484 C89.5927602,93.5746606 89.0950226,90.4638009 89.9660633,89.219457 C92.3303167,92.081448 94.6945701,93.5746606 97.0588235,93.5746606 C99.3933827,93.4472821 101.578722,92.38672 103.123291,90.6315281 C104.66786,88.8763362 105.441968,86.5738898 105.271493,84.2420814 C104.89819,80.8823529 102.160633,78.6425339 97.4321267,76.5271493 L97.0588235,76.4027149 L96.8099548,76.2782805 L96.4366516,76.1538462 L95.938914,75.9049774 L95.4411765,75.780543 L94.8190045,75.5316742 L90.9615385,74.0384615 L86.7307692,72.4208145 L86.2330317,72.2963801 L85.4864253,71.9230769 L76.9004525,67.8167421 C80.6334842,74.6606335 82.9977376,80.0113122 84.2420814,83.7443439 C86.4819005,90.7126697 85.4864253,102.036199 75.780543,105.022624 C67.5678733,107.635747 63.7104072,102.285068 63.3371041,99.6719457 C67.3190045,102.658371 71.0520362,103.404977 74.2873303,101.911765 C79.1402715,99.7963801 80.0113122,93.2013575 77.39819,87.7262443 C76.7760181,86.2330317 75.780543,84.739819 74.2873303,82.9977376 L74.0384615,82.8733032 L73.6651584,82.3755656 L72.918552,81.5045249 L71.9230769,80.3846154 L71.1764706,79.638009 L69.061086,76.9004525 C67.3190045,73.7895928 65.3280543,70.5542986 63.0882353,67.0701357 L62.341629,66.0746606 C59.8529412,69.8076923 57.6131222,73.540724 55.6221719,76.9004525 L53.6312217,79.638009 L52.8846154,80.3846154 L51.8891403,81.5045249 L51.1425339,82.3755656 L50.7692308,82.8733032 L50.520362,82.9977376 C49.0271493,84.739819 48.0316742,86.2330317 47.4095023,87.7262443 C44.9208145,93.0769231 45.6674208,99.7963801 50.520362,101.911765 C53.6312217,103.280543 57.3642534,102.658371 61.0972851,99.5475113 C60.8484163,102.160633 56.9909502,107.511312 48.6538462,104.89819 C38.9479638,101.911765 38.0769231,90.5882353 40.3167421,83.7443439 C41.561086,79.8868778 44.0497738,74.5361991 47.658371,67.5678733 C44.1742081,69.3099548 41.3122172,70.8031674 38.9479638,71.7986425 L38.3257919,72.1719457 L33.5972851,73.9140271 L29.739819,75.4072398 L29.1176471,75.6561086 L28.6199095,75.780543 L27.7488688,76.1538462 L27.5,76.1538462 C22.5226244,78.3936652 19.6606335,80.6334842 19.2873303,84.1176471 C19.1168556,86.4494554 19.8909633,88.7519018 21.4355322,90.5070937 C22.9801011,92.2622856 25.1654408,93.3228477 27.5,93.4502262 C29.9886878,93.4502262 32.2285068,91.9570136 34.5927602,89.0950226 C35.4638009,90.3393665 34.9660633,93.5746606 30.2375566,95.938914 C24.8868778,98.800905 17.0475113,95.1923077 14.5588235,89.219457 C12.2368046,83.1143745 14.1522639,76.2086396 19.2873303,72.1719457 C22.6470588,69.5588235 28.6199095,66.4479638 36.9570136,62.8393665 L29.4909502,59.479638 L27.7488688,58.3597285 L27.5,58.1108597 L26.2556561,57.239819 L24.638009,55.9954751 C21.6515837,53.5067873 19.6606335,52.2624434 17.0475113,51.3914027 C10.3280543,48.9027149 4.6040724,53.2579186 6.22171946,59.8529412 C7.09276018,63.8348416 10.4524887,66.5723982 16.1764706,67.8167421 C15.1809955,68.8122172 12.6923077,69.5588235 9.83031674,68.8122172 C3.98190045,67.5678733 0,62.5904977 0,55.6221719 C0,48.6538462 5.7239819,43.5520362 11.5723982,42.8054299 C15.5542986,42.3076923 19.2873303,42.9298643 22.7714932,44.7963801 L22.7714932,36.9570136 C23.020362,33.0995475 23.6425339,30.4864253 22.7714932,27.6244344 C22.0248869,24.8868778 18.6651584,24.2647059 15.8031674,26.0067873 C13.3144796,27.3755656 13.6877828,29.4909502 12.0701357,29.9886878 C12.9411765,24.0158371 15.8031674,21.1538462 20.5316742,21.1538462 C26.1429968,21.1138221 31.0868571,24.8344592 32.60181,30.2375566 L32.7262443,30.8597285 L32.8506787,31.2330317 L33.3484163,33.9705882 L33.3484163,34.7171946 C33.5972851,37.081448 33.8461538,39.321267 34.3438914,41.4366516 C35.9615385,48.4049774 44.1742081,50.0226244 47.7828054,46.6628959 C50.1470588,44.5475113 50.2714932,41.0633484 48.1561086,36.3348416 L48.1561086,36.0859729 L46.9117647,33.4728507 L46.5384615,33.2239819 C44.0430108,31.9455518 42.2899725,29.572589 41.8013082,26.8116353 C41.3126438,24.0506816 42.1447144,21.2201774 44.0497738,19.1628959 L44.2986425,18.7895928 L44.2986425,18.2918552 C45.2941176,8.83484163 51.5158371,0 62.341629,0 C73.540724,0 79.7624434,8.95927602 80.260181,18.6651584 C77.7399922,16.3867017 74.1478625,15.7297703 70.984394,16.9687955 C67.8209255,18.2078207 65.6304585,21.1296024 65.3280543,24.5135747 L65.3280543,24.7624434 L59.6040724,24.7624434 C59.3441562,21.3562798 57.1698966,18.3943387 53.9981589,17.1256436 C50.8264212,15.8569485 47.2092392,16.502313 44.6719457,18.7895928 L44.6719457,20.4072398 C46.7885656,17.9167422 50.22825,17.0007942 53.3031247,18.1088572 C56.3779995,19.2169202 58.442739,22.1164443 58.4841629,25.3846154 C58.4722406,28.192263 56.9597192,30.7791567 54.5188204,32.166615 C52.0779216,33.5540733 49.0813951,33.5302173 46.6628959,32.1040724 L46.5384615,32.1040724 Z M71.4253394,81.3800905 L72.2963801,82.6244344 L73.0429864,83.2466063 L73.4162896,83.7443439 C74.7850679,85.4864253 75.780543,86.7307692 76.4027149,88.0995475 C78.7669683,93.0769231 78.020362,99.0497738 73.9140271,100.91629 C70.9276018,102.160633 67.5678733,101.414027 63.8348416,98.5520362 C65.2036199,97.3076923 68.5633484,100.169683 71.9230769,97.8054299 C75.158371,95.3167421 76.0294118,91.8325792 72.4208145,83.7443439 C72.0595399,82.9506177 71.6861934,82.1624418 71.300905,81.3800905 L71.4253394,81.3800905 Z M53.3823529,81.3800905 C52.9541563,82.2028773 52.5393205,83.0325488 52.138009,83.8687783 C48.6538462,91.8325792 49.6493213,95.4411765 52.760181,97.8054299 C56.1199095,100.294118 59.479638,97.4321267 60.8484163,98.5520362 C57.1153846,101.414027 53.7556561,102.285068 50.8936652,100.91629 C46.6628959,99.0497738 45.9162896,93.0769231 48.280543,88.0995475 C49.1333445,86.5549667 50.1334716,85.096448 51.2669683,83.7443439 L51.6402715,83.2466063 L52.3868778,82.5 L53.3823529,81.3800905 L53.3823529,81.3800905 Z M30.4864253,76.4027149 C28.4954751,77.6470588 26.5045249,79.3891403 25.0113122,81.2556561 C22.7714932,84.3665158 23.8914027,88.7217195 27.2511312,89.9660633 C30.2375566,90.8371041 32.2285068,88.9705882 33.5972851,88.7217195 C31.6063348,91.2104072 29.6153846,92.4547511 27.6244344,92.4547511 C23.8914027,92.4547511 20.158371,88.7217195 20.5316742,84.3665158 C20.9049774,81.5045249 23.3936652,79.3891403 27.9977376,77.39819 L29.6153846,76.7760181 L30.2375566,76.5271493 L30.4864253,76.5271493 L30.4864253,76.4027149 Z M94.1968326,76.4027149 L94.321267,76.5271493 L95.0678733,76.7760181 L96.561086,77.39819 C101.289593,79.3891403 103.778281,81.5045249 104.027149,84.3665158 C104.198565,86.3682573 103.556002,88.3546083 102.244665,89.8766954 C100.933329,91.3987824 99.0638975,92.3281393 97.0588235,92.4547511 C95.0678733,92.4547511 93.0769231,91.2104072 91.0859729,88.7217195 C92.3303167,88.9705882 94.4457014,90.8371041 97.3076923,89.9660633 C100.791855,88.7217195 101.911765,84.3665158 99.6719457,81.2556561 C98.1571991,79.3523758 96.3003311,77.748717 94.1968326,76.5271493 L94.1968326,76.4027149 Z M16.7986425,52.6357466 C19.0384615,53.5067873 20.9049774,54.6266968 23.5180995,56.6176471 L24.1402715,57.1153846 L24.3891403,57.3642534 L23.6425339,56.9909502 C19.1628959,54.7511312 12.1945701,53.2579186 11.0746606,58.6085973 C9.83031674,63.959276 16.9230769,65.7013575 16.9230769,67.0701357 C11.3235294,65.8257919 8.21266968,63.4615385 7.34162896,59.8529412 C6.09728507,54.2533937 10.9502262,50.520362 16.7986425,52.6357466 L16.7986425,52.6357466 Z M117.341629,59.7285068 C116.470588,63.3371041 113.359729,65.7013575 107.760181,66.9457014 C107.760181,65.7013575 114.728507,63.8348416 113.608597,58.4841629 C112.488688,53.1334842 105.520362,54.6266968 101.040724,56.8665158 L100.667421,56.9909502 L100.294118,57.239819 L100.542986,56.9909502 L101.165158,56.4932127 C103.653846,54.5022624 105.644796,53.3823529 107.884615,52.5113122 C113.733032,50.3959276 118.585973,54.1289593 117.341629,59.7285068 L117.341629,59.7285068 Z M74.1628959,17.4208145 C76.4027149,17.4208145 78.5180995,18.540724 80.0113122,20.158371 L80.1357466,20.4072398 L80.1357466,18.6651584 L80.3846154,18.6651584 L80.7579186,19.1628959 C82.6225109,21.2010416 83.4426566,23.9853609 82.9806395,26.7088298 C82.5186225,29.4322987 80.8261081,31.7903632 78.3936652,33.0995475 L78.1447964,33.2239819 L77.6470588,33.4728507 C77.7714932,32.60181 78.020362,32.1040724 78.1447964,31.979638 C80.0550758,30.8383377 81.3903139,28.9389761 81.8175876,26.755133 C82.2448612,24.5712898 81.7239062,22.30876 80.3846154,20.5316742 L80.260181,20.2828054 L80.260181,20.9049774 L80.1357466,22.1493213 C79.8890877,25.4969122 79.2201321,28.7998804 78.1447964,31.979638 C75.2996977,33.68914 71.6863639,33.4216032 69.1240577,31.3117286 C66.5617515,29.201854 65.6058908,25.7069882 66.7377379,22.5867469 C67.8695851,19.4665055 70.8437954,17.3972473 74.1628959,17.4208145 Z M44.2986425,20.5316742 L44.5475113,20.4072398 C43.1309618,22.1426466 42.5245027,24.4011601 42.8812064,26.6127232 C43.2379102,28.8242864 44.5236961,30.7775991 46.4140271,31.979638 C45.2116306,28.4862368 44.4997158,24.8429083 44.2986425,21.1538462 L44.2986425,20.5316742 L44.2986425,20.5316742 Z M111.493213,16.1764706 C117.963801,20.780543 116.470588,29.8642534 113.857466,30.1131222 C112.861991,23.5180995 109.626697,20.0339367 104.151584,20.0339367 C98.800905,20.0339367 93.8235294,23.2692308 91.7081448,27.6244344 C92.081448,24.3891403 92.7036199,21.2782805 94.1968326,18.9140271 C97.9298643,13.438914 106.764706,12.9411765 111.368778,16.1764706 L111.493213,16.1764706 Z M30.361991,18.9140271 C31.979638,21.2782805 32.60181,24.3891403 32.8506787,27.6244344 C30.4824202,22.9937815 25.7326827,20.0671756 20.5316742,20.0339367 C15.0565611,20.0339367 11.821267,23.5180995 10.8257919,30.1131222 C8.21266968,29.739819 6.71945701,20.780543 13.3144796,16.1764706 C17.918552,12.9411765 26.7533937,13.438914 30.361991,18.9140271 L30.361991,18.9140271 Z M50.520362,23.1447964 C49.2760181,23.1447964 48.9027149,24.1402715 48.9027149,25.3846154 C48.9027149,26.6289593 49.2760181,27.6244344 50.520362,27.6244344 C51.7647059,27.6244344 52.2624434,26.6289593 52.2624434,25.3846154 C52.2624434,24.1402715 51.7647059,23.1447964 50.520362,23.1447964 Z M74.1628959,23.1447964 C72.918552,23.1447964 72.4208145,24.1402715 72.4208145,25.3846154 C72.4208145,26.6289593 72.918552,27.6244344 74.1628959,27.6244344 C75.4072398,27.6244344 75.780543,26.6289593 75.780543,25.3846154 C75.780543,24.1402715 75.4072398,23.1447964 74.1628959,23.1447964 Z M44.2986425,20.6561086 L44.2986425,20.5316742 L44.2986425,20.6561086 Z" id="Shape"></path>
                </g>
            </g>
        </g>
    </g>
</svg>