<svg width="293" height="75" viewBox="0 0 293 75" fill="none" xmlns="http://www.w3.org/2000/svg">
<path d="M55 0H20C8.95431 0 0 8.95431 0 20V55C0 66.0457 8.95431 75 20 75H55C66.0457 75 75 66.0457 75 55V20C75 8.95431 66.0457 0 55 0Z" fill="#14171D"/>
<path fill-rule="evenodd" clip-rule="evenodd" d="M29.4309 28.5816C29.4919 28.5816 29.614 28.879 29.675 29.2953C30.9701 29.8343 32.4518 29.7353 33.6593 29.0289C34.8669 28.3226 35.6538 27.0947 35.7754 25.7269V25.608H38.5816C38.6665 26.9972 39.4385 28.2595 40.6517 28.9928C41.8649 29.7261 43.368 29.8389 44.6821 29.2953L44.072 30.4847V30.6632C43.096 32.9231 43.157 34.5289 44.3161 35.5399C46.1462 37.1457 50.1115 36.3725 50.9046 33.0421C51.1486 32.15 51.2706 31.1984 51.3316 30.1874V29.8305L51.3926 29.4737L51.5756 28.2843V28.1653L51.6976 27.9869V27.6895C52.4462 25.0856 54.9025 23.3018 57.6761 23.348C59.9942 23.348 61.3973 24.7159 61.8244 27.5706C61.0313 27.3327 61.2143 26.3811 59.9942 25.6675C58.5911 24.8348 56.944 25.0727 56.578 26.4406C56.151 27.8085 56.456 29.0574 56.578 30.9011V34.6478C58.2861 33.7557 60.1162 33.4584 62.0684 33.6963C64.9356 34.0531 67.6808 36.551 67.6808 39.8814C67.6808 43.1524 65.7287 45.5313 62.8615 46.1855C61.4583 46.5424 60.2383 46.1855 59.6892 45.7097C62.5564 45.115 64.2036 43.8066 64.6306 41.9035C65.3626 38.7514 62.6174 36.6699 59.3232 37.8594C58.1031 38.2757 57.188 38.8704 55.8459 39.822L55.6019 40.0004L54.8088 40.5951L54.2598 41.0114L54.1988 41.0709L54.0768 41.1898L53.2227 41.7846L49.5625 43.3308C52.6201 44.4799 55.5278 45.9771 58.2251 47.7913C60.6653 49.6349 61.7634 53.1438 60.5433 55.939C59.3232 58.7937 55.4799 60.5184 52.8567 59.1506C50.5385 57.9611 50.2945 56.4743 50.7215 55.8796C51.8806 57.2474 53.0397 57.9611 54.1988 57.9611C55.3433 57.9002 56.4147 57.3933 57.1719 56.5545C57.9292 55.7156 58.3087 54.6151 58.2251 53.5007C58.0421 51.8949 56.7 50.8244 54.3818 49.8134L54.1988 49.7539L54.0768 49.6944L53.8938 49.6349L53.6498 49.516L53.4057 49.4565L53.1007 49.3376L51.2096 48.6239L49.1354 47.8508L48.8914 47.7913L48.5254 47.6129L44.3161 45.6503C46.1462 48.9213 47.3053 51.4786 47.9153 53.2628C49.0134 56.5932 48.5254 62.0053 43.767 63.4326C39.7407 64.6815 37.8496 62.1242 37.6666 60.8753C39.6187 62.3026 41.4488 62.6595 43.035 61.9458C45.4141 60.9348 45.8412 57.7827 44.5601 55.1659C44.2551 54.4522 43.767 53.7386 43.035 52.9059L42.913 52.8465L42.7299 52.6086L42.3639 52.1923L41.8759 51.657L41.5098 51.3002L40.4728 49.9918C39.6187 48.505 38.6426 46.9587 37.5446 45.2934L37.1785 44.8177C35.9584 46.6018 34.8604 48.386 33.8843 49.9918L32.9082 51.3002L32.5422 51.657L32.0541 52.1923L31.6881 52.6086L31.5051 52.8465L31.3831 52.9059C30.651 53.7386 30.163 54.4522 29.858 55.1659C28.6379 57.7232 29.0039 60.9348 31.3831 61.9458C32.9082 62.6 34.7383 62.3026 36.5685 60.8158C36.4465 62.0647 34.5553 64.6221 30.468 63.3731C25.7097 61.9458 25.2826 56.5338 26.3807 53.2628C26.9908 51.4191 28.2109 48.8618 29.98 45.5313C28.2719 46.3639 26.8688 47.0776 25.7097 47.5534L25.4046 47.7318L23.0865 48.5644L21.1953 49.2781L20.8903 49.3971L20.6463 49.4565L20.2193 49.6349H20.0972C17.6571 50.7055 16.254 51.776 16.0709 53.4412C15.9874 54.5557 16.3669 55.6561 17.1241 56.495C17.8813 57.3339 18.9527 57.8408 20.0972 57.9016C21.3173 57.9016 22.4154 57.188 23.5745 55.8201C24.0015 56.4148 23.7575 57.9611 21.4393 59.0911C18.8161 60.459 14.9729 58.7343 13.7528 55.8796C12.6144 52.9617 13.5535 49.6611 16.0709 47.7318C17.7181 46.4829 20.6463 44.9961 24.7336 43.2714L21.0733 41.6656L20.2193 41.1304L20.0972 41.0114L19.4872 40.5951L18.6941 40.0004C17.23 38.8109 16.254 38.2162 14.9729 37.7999C11.6786 36.6104 8.8724 38.692 9.66546 41.844C10.0925 43.7471 11.7396 45.0555 14.5458 45.6503C14.0578 46.1261 12.8377 46.4829 11.4346 46.1261C8.56738 45.5313 6.61523 43.1524 6.61523 39.822C6.61523 36.4915 9.42144 34.0531 12.2887 33.6963C14.2408 33.4584 16.0709 33.7557 17.7791 34.6478V30.9011C17.9011 29.0574 18.2061 27.8085 17.7791 26.4406C17.413 25.1322 15.7659 24.8348 14.3628 25.6675C13.1427 26.3217 13.3257 27.3327 12.5327 27.5706C12.9597 24.7159 14.3628 23.348 16.681 23.348C19.432 23.3289 21.8557 25.1072 22.5984 27.6895L22.6594 27.9869L22.7204 28.1653L22.9645 29.4737V29.8305C23.0865 30.9605 23.2085 32.031 23.4525 33.0421C24.2456 36.3725 28.2719 37.1457 30.041 35.5399C31.2001 34.5289 31.2611 32.8637 30.224 30.6037V30.4847L29.614 29.2358L29.4309 29.1169C28.2075 28.5059 27.3481 27.3717 27.1085 26.0521C26.869 24.7325 27.2769 23.3797 28.2109 22.3965L28.3329 22.218V21.9802C28.8209 17.4602 31.8711 13.2377 37.1785 13.2377C42.6689 13.2377 45.7192 17.5197 45.9632 22.1586C44.7276 21.0696 42.9666 20.7556 41.4157 21.3478C39.8648 21.94 38.7909 23.3364 38.6426 24.9538V25.0727H35.8364C35.709 23.4448 34.6431 22.0291 33.0881 21.4228C31.5331 20.8164 29.7598 21.1249 28.5159 22.218V22.9912C29.5536 21.8009 31.2399 21.3631 32.7474 21.8927C34.2548 22.4223 35.2671 23.8081 35.2874 25.3701C35.2815 26.712 34.54 27.9484 33.3434 28.6115C32.1467 29.2746 30.6776 29.2632 29.4919 28.5816H29.4309ZM41.6319 52.1328L42.0589 52.7275L42.4249 53.0249L42.6079 53.2628C43.279 54.0954 43.767 54.6901 44.072 55.3443C45.2311 57.7232 44.8651 60.5779 42.852 61.47C41.3878 62.0647 39.7407 61.7079 37.9106 60.34C38.5816 59.7453 40.2288 61.1132 41.8759 59.9832C43.462 58.7937 43.889 57.1285 42.1199 53.2628C41.9428 52.8834 41.7597 52.5067 41.5709 52.1328H41.6319ZM32.7862 52.1328C32.5763 52.526 32.3729 52.9226 32.1762 53.3222C30.468 57.1285 30.9561 58.8532 32.4812 59.9832C34.1283 61.1726 35.7754 59.8048 36.4465 60.34C34.6163 61.7079 32.9692 62.1242 31.5661 61.47C29.4919 60.5779 29.1259 57.7232 30.285 55.3443C30.7031 54.6061 31.1934 53.909 31.7491 53.2628L31.9321 53.0249L32.2982 52.6681L32.7862 52.1328ZM21.5614 49.7539C20.5853 50.3486 19.6092 51.1812 18.8772 52.0733C17.7791 53.5601 18.3281 55.6417 19.9752 56.2364C21.4393 56.6527 22.4154 55.7606 23.0865 55.6417C22.1104 56.8311 21.1343 57.4259 20.1582 57.4259C18.3281 57.4259 16.498 55.6417 16.681 53.5601C16.864 52.1923 18.0841 51.1812 20.3413 50.2297L21.1343 49.9323L21.4393 49.8134H21.5614V49.7539ZM52.7957 49.7539L52.8567 49.8134L53.2227 49.9323L53.9548 50.2297C56.273 51.1812 57.493 52.1923 57.6151 53.5601C57.6991 54.5169 57.3841 55.4662 56.7412 56.1937C56.0983 56.9212 55.1818 57.3654 54.1988 57.4259C53.2227 57.4259 52.2467 56.8311 51.2706 55.6417C51.8806 55.7606 52.9177 56.6527 54.3208 56.2364C56.0289 55.6417 56.578 53.5601 55.4799 52.0733C54.7373 51.1637 53.8269 50.3972 52.7957 49.8134V49.7539ZM14.8509 38.3946C15.9489 38.8109 16.864 39.3462 18.1451 40.2977L18.4501 40.5356L18.5721 40.6546L18.2061 40.4762C16.0099 39.4056 12.5937 38.692 12.0446 41.2493C11.4346 43.8066 14.9119 44.6392 14.9119 45.2934C12.1667 44.6987 10.6415 43.5687 10.2145 41.844C9.60446 39.1678 11.9836 37.3836 14.8509 38.3946ZM64.1425 41.7846C63.7155 43.5093 62.1904 44.6392 59.4452 45.234C59.4452 44.6392 62.8615 43.7471 62.3124 41.1898C61.7634 38.6325 58.3471 39.3462 56.151 40.4167L55.9679 40.4762L55.7849 40.5951L55.9069 40.4762L56.212 40.2383C57.432 39.2867 58.4081 38.7514 59.5062 38.3351C62.3734 37.3241 64.7526 39.1083 64.1425 41.7846ZM42.974 21.5638C44.072 21.5638 45.1091 22.0991 45.8412 22.8722L45.9022 22.9912V22.1586H46.0242L46.2072 22.3965C47.1213 23.3706 47.5234 24.7013 47.2969 26.003C47.0704 27.3047 46.2406 28.4317 45.0481 29.0574L44.9261 29.1169L44.6821 29.2358C44.7431 28.8195 44.8651 28.5816 44.9261 28.5221C45.8626 27.9767 46.5172 27.0689 46.7267 26.0251C46.9362 24.9814 46.6808 23.9 46.0242 23.0507L45.9632 22.9317V23.2291L45.9022 23.8238C45.7813 25.4238 45.4533 27.0024 44.9261 28.5221C43.5313 29.3392 41.7598 29.2113 40.5036 28.2029C39.2475 27.1945 38.7788 25.5242 39.3337 24.0329C39.8886 22.5416 41.3468 21.5526 42.974 21.5638ZM28.3329 23.0507L28.4549 22.9912C27.7604 23.8206 27.4631 24.9001 27.638 25.9571C27.8128 27.0141 28.4432 27.9476 29.3699 28.5221C28.7805 26.8525 28.4314 25.1112 28.3329 23.348V23.0507ZM61.2753 20.9691C64.4476 23.1696 63.7155 27.5111 62.4344 27.6301C61.9464 24.478 60.3603 22.8128 57.6761 22.8128C55.0529 22.8128 52.6127 24.3591 51.5756 26.4406C51.7586 24.8943 52.0636 23.4075 52.7957 22.2775C54.6258 19.6607 58.9572 19.4228 61.2143 20.9691H61.2753ZM21.5004 22.2775C22.2934 23.4075 22.5984 24.8943 22.7204 26.4406C21.5594 24.2274 19.2308 22.8287 16.681 22.8128C13.9968 22.8128 12.4107 24.478 11.9226 27.6301C10.6415 27.4516 9.90948 23.1696 13.1427 20.9691C15.3999 19.4228 19.7312 19.6607 21.5004 22.2775ZM31.3831 24.2996C30.773 24.2996 30.59 24.7754 30.59 25.3701C30.59 25.9648 30.773 26.4406 31.3831 26.4406C31.9931 26.4406 32.2372 25.9648 32.2372 25.3701C32.2372 24.7754 31.9931 24.2996 31.3831 24.2996ZM42.974 24.2996C42.3639 24.2996 42.1199 24.7754 42.1199 25.3701C42.1199 25.9648 42.3639 26.4406 42.974 26.4406C43.584 26.4406 43.767 25.9648 43.767 25.3701C43.767 24.7754 43.584 24.2996 42.974 24.2996ZM28.3329 23.1101V23.0507V23.1101Z" fill="white"/>
<path d="M115.663 51.8618C116.208 51.8618 116.649 51.7025 116.987 51.3838C117.324 51.0652 117.493 50.651 117.493 50.1412C117.493 49.6569 117.324 49.2554 116.987 48.9368C116.649 48.6181 116.208 48.4588 115.663 48.4588H99.699V38.5177H111.224C111.769 38.5177 112.211 38.3583 112.548 38.0397C112.885 37.7211 113.054 37.3196 113.054 36.8353C113.054 36.3255 112.885 35.9113 112.548 35.5926C112.211 35.274 111.769 35.1147 111.224 35.1147H99.699V25.4029H115.663C116.208 25.4029 116.649 25.2436 116.987 24.925C117.324 24.6064 117.493 24.2049 117.493 23.7206C117.493 23.2108 117.324 22.7966 116.987 22.4779C116.649 22.1593 116.208 22 115.663 22H97.869C97.3238 22 96.8761 22.1721 96.5256 22.5162C96.1752 22.8603 96 23.3 96 23.8353V50.0265C96 50.5618 96.1752 51.0015 96.5256 51.3456C96.8761 51.6897 97.3238 51.8618 97.869 51.8618H115.663ZM131.783 52.0147C133.704 52.0147 135.41 51.5623 136.903 50.6574C137.869 50.0718 138.704 49.3502 139.409 48.4926L139.492 48.3883V50.1029C139.492 50.5618 139.634 50.9535 139.918 51.2781L140.018 51.3838C140.368 51.7279 140.803 51.9 141.322 51.9C141.867 51.9 142.309 51.7279 142.646 51.3838C142.983 51.0397 143.152 50.6128 143.152 50.1029V41.4235C143.152 39.4098 142.678 37.6 141.731 35.9941C140.784 34.3882 139.505 33.1201 137.896 32.1897C136.286 31.2593 134.456 30.7941 132.406 30.7941C130.381 30.7941 128.557 31.2593 126.935 32.1897C125.313 33.1201 124.028 34.3819 123.08 35.975C122.133 37.5681 121.659 39.3843 121.659 41.4235C121.659 43.4373 122.1 45.2471 122.983 46.8529C123.866 48.4588 125.073 49.7206 126.604 50.6382C128.136 51.5559 129.862 52.0147 131.783 52.0147ZM132.406 48.8412C131.056 48.8412 129.829 48.5162 128.726 47.8662C127.623 47.2162 126.753 46.3304 126.117 45.2088C125.481 44.0873 125.164 42.8255 125.164 41.4235C125.164 39.9961 125.481 38.7216 126.117 37.6C126.753 36.4784 127.623 35.5926 128.726 34.9426C129.829 34.2926 131.056 33.9677 132.406 33.9677C133.807 33.9677 135.047 34.2926 136.124 34.9426C137.201 35.5926 138.058 36.4784 138.694 37.6C139.33 38.7216 139.648 39.9961 139.648 41.4235C139.648 42.8255 139.33 44.0873 138.694 45.2088C138.058 46.3304 137.201 47.2162 136.124 47.8662C135.047 48.5162 133.807 48.8412 132.406 48.8412ZM156.702 52.0147C158.493 52.0147 160.005 51.7471 161.238 51.2118C162.471 50.6765 163.419 49.9436 164.081 49.0132C164.743 48.0828 165.074 47.0186 165.074 45.8206C165.074 44.8265 164.833 43.9407 164.353 43.1632C163.873 42.3858 163.068 41.6976 161.939 41.0985C160.81 40.4995 159.272 40.0216 157.325 39.6647C155.897 39.4098 154.814 39.1294 154.074 38.8235C153.334 38.5177 152.828 38.1672 152.555 37.7721C152.283 37.377 152.147 36.9373 152.147 36.4529C152.147 35.6627 152.549 35.0446 153.354 34.5985C154.158 34.1525 155.184 33.9294 156.43 33.9294C157.468 33.9294 158.376 34.0632 159.155 34.3309C159.934 34.5985 160.648 35.0637 161.297 35.7265C161.66 36.0578 162.101 36.2681 162.621 36.3574C163.14 36.4466 163.581 36.3637 163.944 36.1088C164.36 35.8284 164.58 35.4843 164.606 35.0765C164.632 34.6686 164.489 34.2735 164.178 33.8912C163.399 32.9226 162.354 32.1642 161.044 31.6162C159.733 31.0681 158.221 30.7941 156.507 30.7941C155.158 30.7941 153.879 31.0044 152.672 31.425C151.465 31.8456 150.485 32.4828 149.732 33.3368C148.98 34.1907 148.603 35.2677 148.603 36.5677C148.603 38.0206 149.2 39.2569 150.394 40.2765C151.588 41.2961 153.496 42.048 156.118 42.5324C158.143 42.8892 159.557 43.3544 160.362 43.9279C161.167 44.5015 161.569 45.1961 161.569 46.0118C161.543 46.8275 161.121 47.5029 160.304 48.0382C159.486 48.5735 158.26 48.8412 156.624 48.8412C155.404 48.8412 154.301 48.6373 153.315 48.2294C152.328 47.8216 151.575 47.3373 151.056 46.7765C150.745 46.4196 150.355 46.2157 149.888 46.1647C149.421 46.1137 148.954 46.2667 148.487 46.6235C148.071 46.9294 147.831 47.3181 147.766 47.7897C147.701 48.2613 147.851 48.6882 148.214 49.0706C149.097 49.9628 150.304 50.6765 151.835 51.2118C153.367 51.7471 154.989 52.0147 156.702 52.0147ZM173.951 61C174.574 61 175.028 60.6431 175.314 59.9294L187.462 33.3176C187.955 32.298 187.657 31.5588 186.567 31.1C185.554 30.6922 184.801 30.9726 184.308 31.9412L177.734 46.4106L170.447 31.9029C170.26 31.5129 169.989 31.2365 169.634 31.0736L169.512 31.0235C169.097 30.8706 168.669 30.8961 168.227 31.1L168.092 31.157C167.698 31.3382 167.425 31.6124 167.273 31.9794C167.105 32.3873 167.137 32.8206 167.371 33.2794L176.091 50.0271L172.199 58.5912C171.75 59.5716 172.008 60.2927 172.975 60.7546L173.094 60.8088C173.406 60.9363 173.691 61 173.951 61ZM213.861 51.8618C214.276 51.8618 214.646 51.7279 214.971 51.4603C215.295 51.1927 215.548 50.8294 215.73 50.3706L223.595 24.5618C223.777 23.8735 223.764 23.2745 223.556 22.7647C223.349 22.2549 222.907 22 222.232 22C221.272 22 220.675 22.3951 220.441 23.1853L213.852 45.6881L207.748 23.7206C207.656 23.3807 207.471 23.1113 207.194 22.9125L207.086 22.8412C206.749 22.6373 206.385 22.5353 205.996 22.5353C205.581 22.5353 205.204 22.65 204.867 22.8794C204.529 23.1088 204.309 23.402 204.205 23.7588L198.158 45.6143L191.667 23.3765C191.529 22.946 191.324 22.6212 191.052 22.4022L190.947 22.325C190.622 22.1083 190.253 22 189.837 22C189.214 22 188.76 22.2358 188.474 22.7074C188.189 23.1789 188.163 23.7971 188.397 24.5618L196.301 50.4088C196.43 50.8422 196.664 51.1927 197.002 51.4603C197.339 51.7279 197.715 51.8618 198.131 51.8618C198.572 51.8618 198.955 51.7279 199.279 51.4603C199.604 51.1927 199.844 50.8294 200 50.3706L206.031 28.2027L211.992 50.4088C212.106 50.7657 212.294 51.0738 212.556 51.333L212.673 51.4412C212.998 51.7216 213.394 51.8618 213.861 51.8618ZM237.69 52.0147C238.884 52.0147 240.143 51.7917 241.467 51.3456C242.791 50.8995 243.881 50.3324 244.738 49.6441C245.153 49.3382 245.348 48.975 245.322 48.5544C245.296 48.1338 245.075 47.7451 244.66 47.3882C244.348 47.1333 243.985 47.0123 243.57 47.025C243.154 47.0377 242.765 47.1716 242.402 47.4265C241.856 47.8343 241.149 48.1912 240.28 48.4971C239.41 48.8029 238.547 48.9559 237.69 48.9559C236.185 48.9559 234.854 48.6309 233.699 47.9809C232.544 47.3309 231.636 46.4387 230.974 45.3044C230.532 44.5482 230.238 43.7212 230.091 42.8234L230.065 42.6471H245.166C245.61 42.6471 245.98 42.5283 246.277 42.2909L246.373 42.2074C246.685 41.9142 246.84 41.5382 246.84 41.0794C246.84 39.0657 246.451 37.2877 245.672 35.7456C244.894 34.2034 243.771 32.9926 242.304 32.1132C240.838 31.2338 239.105 30.7941 237.106 30.7941C235.082 30.7941 233.284 31.2466 231.713 32.1515C230.143 33.0564 228.917 34.3054 228.034 35.8985C227.151 37.4917 226.71 39.3333 226.71 41.4235C226.71 43.4882 227.177 45.3172 228.112 46.9103C229.046 48.5034 230.344 49.7525 232.006 50.6574C233.667 51.5623 235.562 52.0147 237.69 52.0147ZM243.507 39.7794H230.11L230.115 39.7534C230.234 39.0438 230.432 38.3776 230.71 37.755L230.818 37.5235C231.376 36.3765 232.194 35.4779 233.271 34.8279C234.348 34.1779 235.627 33.8529 237.106 33.8529C238.456 33.8529 239.611 34.1588 240.572 34.7706C241.532 35.3824 242.272 36.2172 242.791 37.275C243.162 38.0306 243.4 38.861 243.506 39.7661L243.507 39.7794ZM261.792 52.0147C262.986 52.0147 264.245 51.7917 265.569 51.3456C266.893 50.8995 267.983 50.3324 268.84 49.6441C269.255 49.3382 269.45 48.975 269.424 48.5544C269.398 48.1338 269.177 47.7451 268.762 47.3882C268.45 47.1333 268.087 47.0123 267.671 47.025C267.256 47.0377 266.867 47.1716 266.503 47.4265C265.958 47.8343 265.251 48.1912 264.381 48.4971C263.512 48.8029 262.649 48.9559 261.792 48.9559C260.286 48.9559 258.956 48.6309 257.801 47.9809C256.646 47.3309 255.737 46.4387 255.075 45.3044C254.634 44.5482 254.34 43.7212 254.193 42.8234L254.167 42.6471H269.268C269.712 42.6471 270.082 42.5283 270.379 42.2909L270.475 42.2074C270.786 41.9142 270.942 41.5382 270.942 41.0794C270.942 39.0657 270.553 37.2877 269.774 35.7456C268.995 34.2034 267.873 32.9926 266.406 32.1132C264.939 31.2338 263.207 30.7941 261.208 30.7941C259.183 30.7941 257.386 31.2466 255.815 32.1515C254.245 33.0564 253.018 34.3054 252.136 35.8985C251.253 37.4917 250.812 39.3333 250.812 41.4235C250.812 43.4882 251.279 45.3172 252.214 46.9103C253.148 48.5034 254.446 49.7525 256.107 50.6574C257.769 51.5623 259.663 52.0147 261.792 52.0147ZM267.609 39.7794H254.212L254.216 39.7534C254.336 39.0438 254.534 38.3776 254.812 37.755L254.92 37.5235C255.478 36.3765 256.295 35.4779 257.373 34.8279C258.45 34.1779 259.728 33.8529 261.208 33.8529C262.558 33.8529 263.713 34.1588 264.673 34.7706C265.634 35.3824 266.374 36.2172 266.893 37.275C267.264 38.0306 267.502 38.861 267.608 39.7661L267.609 39.7794ZM290.566 52.0721C291.033 52.1103 291.462 51.9765 291.851 51.6706C292.24 51.3392 292.455 50.9569 292.494 50.5235C292.532 50.0902 292.396 49.6951 292.085 49.3382L284.353 40.0075L291.734 33.5088C292.061 33.2106 292.246 32.8762 292.29 32.5057L292.299 32.3809C292.312 31.9603 292.15 31.5716 291.812 31.2147C291.501 30.8578 291.131 30.673 290.702 30.6603C290.274 30.6476 289.878 30.8069 289.515 31.1382L279.547 39.8829V23.7206C279.547 23.2618 279.416 22.8804 279.153 22.5764L279.06 22.4779C278.736 22.1593 278.301 22 277.756 22C277.237 22 276.815 22.1593 276.491 22.4779C276.166 22.7966 276.004 23.2108 276.004 23.7206V50.1412C276.004 50.651 276.166 51.0652 276.491 51.3838C276.815 51.7025 277.237 51.8618 277.756 51.8618C278.301 51.8618 278.736 51.7025 279.06 51.3838C279.385 51.0652 279.547 50.651 279.547 50.1412V44.2384L281.811 42.2449L289.398 51.4412C289.678 51.7853 290.022 51.99 290.428 52.0554L290.566 52.0721Z" fill="#14171D"/>
</svg>
